<?xml version="1.0" encoding="utf-8"?>
<!-- Generator: Adobe Illustrator 19.2.1, SVG Export Plug-In . SVG Version: 6.00 Build 0)  -->
<svg version="1.1" id="Layer_1" xmlns="http://www.w3.org/2000/svg" xmlns:xlink="http://www.w3.org/1999/xlink" x="0px" y="0px"
	 viewBox="0 0 16 16" style="enable-background:new 0 0 16 16;" xml:space="preserve" width="16px" height="16px">
<style type="text/css">
	.st0{fill:#FF3FB4;}
	.st1{fill:#00BAE3;}
	.st2{fill:#FFE883;}
	.st3{fill:#FF4612;}
</style>
<path class="st0" d="M7.4,0C5.4,0,3.5,0.9,2.2,2.2l6.4,6.4V0.1C8.2,0,7.8,0,7.4,0z"/>
<path class="st1" d="M9.3,1.1v7.3l-5.8,5.8C4.8,15.3,6.5,16,8.3,16c4.1,0,7.5-3.4,7.5-7.5C15.8,4.7,13,1.7,9.3,1.1z"/>
<path class="st2" d="M1.9,3.8C0.7,4.9,0,6.5,0,8.3c0,2.1,1,3.8,2.5,5L7,8.8C7,8.8,1.9,3.8,1.9,3.8z"/>
<path class="st3" d="M6,8.1c-0.5,0-1,0.4-1.3,0.9c0.5,0.6,0.8,1.3,0.8,2.2c0,0.3,0,0.6-0.1,0.8c0.2,0.1,0.4,0.2,0.6,0.2
	c0.9,0,1.6-0.9,1.6-2.1S6.9,8.1,6,8.1C6,8.1,6,8.1,6,8.1z M3.6,8.9C2.7,8.9,2,9.9,2,11s0.7,2.1,1.6,2.1s1.6-0.9,1.6-2.1
	S4.4,8.9,3.6,8.9z M7.4,12c-0.4,0.5-1.1,0.9-1.8,0.9c0.3,0.4,0.5,0.9,0.5,1.4V15h2.1v-1.7C8.1,12.7,7.8,12.2,7.4,12L7.4,12z M1.8,13
	C1.3,13.2,1,13.7,1,14.3V16h5.2v-1.7c0-0.5-0.3-1-0.8-1.2c-0.5,0.6-1.1,0.9-1.8,0.9S2.2,13.6,1.8,13z M9.7,8.2
	c-0.9,0-1.6,0.9-1.6,2.1s0.7,2.1,1.6,2.1c0.2,0,0.4-0.1,0.6-0.2c-0.1-0.3-0.1-0.5-0.1-0.8c0-0.9,0.3-1.7,0.8-2.2
	C10.7,8.5,10.2,8.1,9.7,8.2L9.7,8.2z M10.6,11c0,1.1,0.7,2.1,1.6,2.1c0.9,0,1.6-0.9,1.6-2.1S13,8.9,12.2,8.9
	C11.3,8.9,10.6,9.9,10.6,11z M8.4,12c-0.5,0.2-0.8,0.7-0.8,1.2V15h2.1v-0.7c0-0.5,0.2-1,0.5-1.4C9.5,12.9,8.8,12.5,8.4,12
	C8.4,12,8.4,12,8.4,12z M12.2,13.9c-0.7,0-1.4-0.3-1.8-0.9c-0.5,0.2-0.8,0.7-0.8,1.2V16h5.2v-1.7c0-0.5-0.3-1-0.8-1.2
	C13.5,13.6,12.9,13.9,12.2,13.9z"/>
</svg>
